<?xml version="1.0" encoding="utf-8"?>
<!-- Generator: Adobe Illustrator 19.0.0, SVG Export Plug-In . SVG Version: 6.00 Build 0)  -->
<svg version="1.1" id="Layer_1" xmlns="http://www.w3.org/2000/svg" xmlns:xlink="http://www.w3.org/1999/xlink" x="0px" y="0px"
	 viewBox="0 0 32.9 30.7" style="enable-background:new 0 0 32.9 30.7;" xml:space="preserve">
<style type="text/css">
	.st0{fill:none;stroke:#010101;stroke-width:1.5;stroke-miterlimit:22.9256;}
</style>
<path id="XMLID_6_" class="st0" d="M14.3,24c1.6,0,2.9,1.3,2.9,2.9c0,1.6-1.3,2.9-2.9,2.9c-1.6,0-2.9-1.3-2.9-2.9
	C11.4,25.3,12.7,24,14.3,24L14.3,24z"/>
<path id="XMLID_5_" class="st0" d="M25.5,24c1.6,0,2.9,1.3,2.9,2.9c0,1.6-1.3,2.9-2.9,2.9s-2.9-1.3-2.9-2.9
	C22.6,25.3,23.9,24,25.5,24L25.5,24z"/>
<polyline id="XMLID_4_" class="st0" points="0,1 5.9,1 11.4,18.9 29.7,18.9 "/>
<line id="XMLID_3_" class="st0" x1="10.4" y1="14.2" x2="31.7" y2="14.2"/>
<line id="XMLID_2_" class="st0" x1="8.9" y1="9.5" x2="32.9" y2="9.5"/>
</svg>
