<?xml version="1.0" encoding="utf-8"?>
<!-- Generator: Adobe Illustrator 19.2.0, SVG Export Plug-In . SVG Version: 6.00 Build 0)  -->
<svg version="1.1" id="Layer_1" xmlns="http://www.w3.org/2000/svg" xmlns:xlink="http://www.w3.org/1999/xlink" x="0px" y="0px"
	 viewBox="0 0 278.3 150.3" style="enable-background:new 0 0 278.3 150.3;" xml:space="preserve">
<g>
	<g>
		<path d="M21.2,85.6c-0.4-0.1-0.5-0.4-0.4-0.5c0.1-0.3,0.4-0.4,1.1-0.4c4.7-0.5,9.2-4.2,11.5-8c2-3.4,2.3-5.4,0.5-5.9
			c-1.6-0.7-3.9,0-6.7,2c-1.7,1.2-3.5,2.9-5.5,5.2c-1.3,1.5-3.8,4.4-7.4,8.8c-3.6,4.4-6.4,7.6-8.7,9.8c-1.2,1.2-2.1,1.9-2.8,2.3
			c-0.4,0-1.1,1.1-1.5,0.7c-0.7,0.1-1.2,0-1.3-0.7c-0.1-0.3,0.1-0.8,0.7-1.7c0.9-2,3.1-7.1,6.3-15.4c3.4-8.8,6-15.5,7.9-20.2
			c1.7-4.7,4.3-10.6,7.5-17.8c3.4-7.2,6.6-13.7,9.8-19.3c2.9-5.2,5.6-9.5,8-12.7c3.6-4.8,7-8.2,10.2-10.1c4.7-2.7,9.7-1.9,12.3,1.9
			c2.8,3.8,3.6,8.3,2.7,13.8c-0.8,4.2-3.1,8.7-6.7,13.4c-2.8,3.6-6.4,7.4-10.9,11.1c-5.4,4.4-9.7,7.6-15.5,11.9l-5.1,3.6l-5.6,3.8
			l-5.2,3.6c-0.1,0.5-1.2,3.4-3.2,8.3L8.6,84.4c-2.4,6.3-4.4,10.9-6,13.7c0.9-0.7,2.3-1.7,4-3.5c4.7-4.7,10.9-13.3,15.4-18.1
			c1.9-2,3.8-3.8,5.5-5c2.4-1.7,4.6-2.4,6.4-1.9c2.5,0.5,3.1,3.6,2.1,5.6c-1.7,5.4-7.8,10.2-13.7,10.3c0.7,0.9,0.8,2.8,0.4,5.6
			c-0.4,2-1.1,4.7-2,8.3l-1.9,7.1c-0.8,3.2-1.1,5.8-0.9,7.8c0.5,11.5,16.6,0.9,20.8-1.9c5.5-3.8,13.8-10.5,24.8-20.1
			C76,81.6,86.4,72.6,94.7,65.8c0.7-0.7,1.5-1.2,2.1-1.7c0.7-0.4,0.9-0.4,1.1,0c0,0.1-0.1,0.3-0.3,0.4l-2,1.5
			c-3.8,3.5-10.5,8.8-14.2,12.1s-10.3,9.2-14.6,13c-6.3,5.8-15.1,13.4-22.1,18.8c-4.8,3.6-9.1,6.4-12.9,8.4
			c-1.6,0.8-3.1,1.5-4.4,1.9c-2.7,1.1-7,1.2-9-1.1c-1.3-1.5-1.9-4-1.5-7.4c0.1-1.7,0.4-3.4,0.8-5.1l3.1-10.6
			c0.9-3.9,1.5-6.4,1.5-7.6C22.3,87,21.9,86,21.2,85.6z M34.1,51.7C44.7,44.1,52.3,37.4,57,31.6c3.6-4.6,6-8.8,7.1-12.9
			c0.9-3.8,0.8-7.5-0.4-11.3c-1.2-3.9-3.5-5.9-6.7-6.3c-2-0.3-4.3,0.4-6.6,2c-3.1,2-6.3,5.5-9.7,10.5c-4.4,6.6-9.2,15.7-14.6,27.6
			c-2.8,6.3-5.9,13.7-9.2,22.1C24,58.7,29.8,54.8,34.1,51.7z"/>
		<path d="M96.7,64c4.3-3.4,6.8-4.2,7.6-2.4c0.3,0.7,0.1,2-0.3,3.9c-0.7,4-4,10.7-5.5,14.6c-1.2,3.2-1.2,5.2,0,6.2
			c0.9,0.8,2.8,0.9,5.5,0.5c3.6-0.4,8.2-2,13.8-4.6c10.9-4.8,20.9-10.9,30.2-18.2c0.4-0.4,0.8,0.4,0.3,0.8
			c-14.3,10.7-27.2,17.8-38.7,21.4c-7.8,2.5-12.2,2-13.1-1.5c-0.4-1.6-0.1-4,0.8-7.2c0.4-1.7,1.3-3.9,2.7-6.7l2.3-4.8
			c1.1-2.5,1.3-4,0.8-4.3c-0.9-0.4-2.9,0.7-6,3.2c-0.4,0.1-0.5,0.1-0.7-0.1L96.7,64z M106.2,50.8c0.5-2,2.8-0.9,2.3,0.7
			C108.1,53.3,105.8,52.6,106.2,50.8z"/>
		<path d="M152,61.1c0.8-0.7,2-1.5,3.6-2.5c3.2-2.1,5.8-3.4,8.8-4.4c3.1-1.1,5.4-1.2,6.8-0.4c1.7,0.9,2.5,3.1,2.5,6.3
			c0,2.4-0.7,6.3-2,11.5c2.4-4.7,5-8.3,7.6-10.9c2.3-2.1,4.4-3.1,6.2-2.8c2,0.4,3.1,2.1,3.1,5.2c0,2.5-0.4,5.1-1.2,7.6
			c-1.2,4.2-2.9,7.6-5.2,10.6c15.7-1.7,27.2-5.9,39-13.5l5-3.6c0.4-0.1,0.5-0.1,0.7,0.1c0.1,0.1,0.1,0.4-0.1,0.5l-2,1.5
			c-4.2,2.9-8.2,5.5-12.1,7.5c-8.2,4-18.6,7-31.5,8.7c-3.1,3.4-5.6,4.3-7.4,3.1c-0.9-0.7-0.8-1.5,0.4-2.4c1.1-0.7,2.9-1.2,5.6-1.6
			c2.3-3.1,4.3-7.2,5.9-12.5c0.9-3.2,1.5-5.8,1.3-7.5c-0.1-1.3-0.7-2.1-1.3-2.4c-0.7-0.4-1.7-0.3-3.1,0.4c-1.7,0.9-3.5,2.5-5.5,5
			c-3.1,3.9-5.4,8.2-7,12.9c-2.4,8-7,20-13.7,35.7c-4.3,9.5-11.7,26-15.8,35.5c-0.3,0.7-0.4,1.2-0.5,1.3c-0.7,0.7-1.9,0.3-1.9-0.8
			c0.1-0.1,0.4-0.8,0.4-0.9c0.7-1.6,4.7-11.4,12.3-29.4c7.6-18,13.3-31.8,16.8-41.6c2.4-6.8,3.9-11.9,4.6-15.4c0.7-4.4,0-7-2.3-7.6
			c-2-0.7-5.1,0-9.2,2.3c-2.3,1.2-6,3.8-11.3,7.4l-0.8,0.5l-0.5,0.4c-0.4,0.3-0.5,0.1-0.5-0.3c0-0.1,0.1-0.4,0.3-0.5L152,61.1z
			 M174.5,84.7c0,0,0.5,0,1.6,0c0.9-0.3,1.7-0.8,2.7-1.7C176.3,83.3,174.8,83.9,174.5,84.7z"/>
		<path d="M226.4,64c4.3-3.4,6.8-4.2,7.6-2.4c0.3,0.7,0.1,2-0.3,3.9c-0.7,4-4,10.7-5.5,14.6c-1.2,3.2-1.2,5.2,0,6.2
			c0.9,0.8,2.8,0.9,5.5,0.5c3.6-0.4,8.2-2,13.8-4.6c10.9-4.8,20.9-10.9,30.2-18.2c0.4-0.4,0.8,0.4,0.3,0.8
			c-14.3,10.7-27.2,17.8-38.7,21.4c-7.8,2.5-12.2,2-13.1-1.5c-0.4-1.6-0.1-4,0.8-7.2c0.4-1.7,1.3-3.9,2.7-6.7l2.3-4.8
			c1.1-2.5,1.3-4,0.8-4.3c-0.9-0.4-2.9,0.7-6,3.2c-0.4,0.1-0.5,0.1-0.7-0.1L226.4,64z M235.9,50.8c0.5-2,2.8-0.9,2.3,0.7
			C237.8,53.3,235.5,52.6,235.9,50.8z"/>
	</g>
</g>
<g>
	<path d="M175.7,109.6h2.6c3,0,5,1.9,5,4.7s-2,4.7-5,4.7h-2.6V109.6z M178.2,117.7c2.5,0,3.6-1.4,3.6-3.4c0-2-1.2-3.4-3.6-3.4h-1
		v6.9H178.2z"/>
	<path d="M194.8,109.6h6v1.3h-4.5v3.7h4v1.3h-4v1.9h4.7v1.3h-6.2V109.6z"/>
	<path d="M211.9,117.2l1.2-0.7c0.4,0.7,1,1.3,2.2,1.3c1,0,1.6-0.5,1.6-1.3c0-0.8-0.6-1.2-1.6-1.6l-0.6-0.3c-1.4-0.6-2.2-1.3-2.2-2.8
		c0-1.4,1.1-2.4,2.7-2.4c1.2,0,2.1,0.5,2.7,1.5l-1.2,0.7c-0.4-0.6-0.8-0.9-1.5-0.9c-0.8,0-1.2,0.5-1.2,1.1c0,0.7,0.4,1,1.4,1.4
		l0.6,0.3c1.6,0.7,2.5,1.5,2.5,3c0,1.7-1.3,2.6-3.1,2.6C213.5,119.2,212.4,118.3,211.9,117.2z"/>
	<path d="M229.9,109.6h1.5v9.4h-1.5V109.6z"/>
	<path d="M242.9,114.3c0-2.8,2-4.8,4.8-4.8c1.4,0,2.6,0.4,3.3,1.3l-1,1c-0.5-0.6-1.2-0.9-2.4-0.9c-2,0-3.3,1.5-3.3,3.5
		c0,2,1.4,3.5,3.5,3.5c1,0,1.8-0.2,2.3-0.6v-1.7h-2.5v-1.3h3.9v3.7c-0.6,0.6-1.9,1.2-3.7,1.2C245,119.2,242.9,117.1,242.9,114.3z"/>
	<path d="M265.4,113.5c-0.4-0.4-0.9-1.1-0.9-1.1s0.1,0.8,0.1,1.4v5.2h-1.4v-9.5h0.2l5.2,5.6c0.4,0.4,0.9,1.1,0.9,1.1
		s-0.1-0.8-0.1-1.4v-5.2h1.4v9.5h-0.2L265.4,113.5z"/>
</g>
</svg>
